<svg xmlns="http://www.w3.org/2000/svg" width="218" height="218" viewBox="0 0 218 218" fill="none"><path d="M120.088 9.97071L93.3667 39.8209C88.4371 45.3277 88.9003 53.7797 94.4012 58.6991C99.9021 63.6185 108.358 63.1423 113.287 57.6355L140.009 27.7853C144.938 22.2785 144.475 13.8265 138.974 8.90712C133.473 3.98775 125.018 4.46394 120.088 9.97071Z" fill="#76D1B3"></path><path d="M170.152 189.057V149.002C170.152 141.613 164.168 135.623 156.787 135.623C149.405 135.623 143.422 141.613 143.422 149.002V189.057C143.422 196.446 149.405 202.436 156.787 202.436C164.168 202.436 170.152 196.446 170.152 189.057Z" fill="#74D9F2"></path><path d="M207.895 120.054L178.03 93.3462C172.52 88.4191 164.064 88.882 159.142 94.3801C154.22 99.8783 154.697 108.33 160.206 113.257L190.071 139.965C195.581 144.892 204.037 144.429 208.959 138.931C213.881 133.433 213.404 124.981 207.895 120.054Z" fill="#66D7F2"></path><path d="M189.161 47.7148H149.086C141.693 47.7148 135.7 53.6955 135.7 61.0732C135.7 68.4508 141.693 74.4316 149.086 74.4316H189.161C196.554 74.4316 202.547 68.4508 202.547 61.0732C202.547 53.6955 196.554 47.7148 189.161 47.7148Z" fill="#6ED3D6"></path><path d="M28.6952 170.059H68.7696C76.1626 170.059 82.1558 164.078 82.1558 156.701C82.1558 149.323 76.1626 143.342 68.7696 143.342H28.6952C21.3023 143.342 15.3091 149.323 15.3091 156.701C15.3091 164.078 21.3023 170.059 28.6952 170.059Z" fill="#9EE2E9"></path><path d="M97.768 207.78L124.489 177.929C129.419 172.423 128.956 163.971 123.455 159.051C117.954 154.132 109.498 154.608 104.569 160.115L77.8474 189.965C72.9178 195.472 73.381 203.924 78.8819 208.843C84.3828 213.763 92.8384 213.286 97.768 207.78Z" fill="#85DFF5"></path><path d="M47.7468 28.7153V68.7696C47.7468 76.1588 53.7306 82.1489 61.1119 82.1489C68.4933 82.1489 74.4771 76.1588 74.4771 68.7696V28.7153C74.4771 21.3261 68.4933 15.3359 61.1119 15.3359C53.7306 15.3359 47.7468 21.3261 47.7468 28.7153Z" fill="#81D3B8"></path><path d="M9.97604 97.7313L39.8412 124.44C45.3508 129.367 53.8071 128.904 58.7289 123.406C63.6508 117.907 63.1743 109.456 57.6648 104.529L27.7996 77.8208C22.29 72.8937 13.8337 73.3566 8.91191 78.8547C3.99007 84.3529 4.4665 92.8042 9.97604 97.7313Z" fill="#9EE5CB"></path></svg>